<?xml version="1.0" encoding="UTF-8"?>
<svg xmlns="http://www.w3.org/2000/svg" width="341" height="175" viewBox="0 0 341 175" fill="none">
  <path d="M194.907 35.029C194.334 35.581 193.675 36.079 192.933 36.525C192.19 36.971 191.363 37.343 190.45 37.64C189.537 37.937 188.529 38.085 187.426 38.085C187.194 38.085 186.971 38.07 186.747 38.056C181.579 37.858 177.445 33.534 177.445 28.218C177.445 22.978 181.462 18.705 186.527 18.395C186.705 18.386 186.874 18.372 187.059 18.372C187.855 18.372 188.601 18.45 189.301 18.598C190.268 18.793 191.177 19.12 192.024 19.585C193.409 20.349 194.554 21.304 195.464 22.447L199.729 18.882C198.243 16.971 196.429 15.454 194.285 14.329C192.142 13.205 189.735 12.63 187.061 12.63C187.037 12.63 187.013 12.632 186.989 12.633V12.63C179.162 12.63 172.683 18.397 171.567 25.914C171.566 25.923 171.565 25.933 171.564 25.942C171.528 26.184 171.497 26.427 171.473 26.673C171.469 26.71 171.468 26.748 171.465 26.785C171.445 27.004 171.426 27.223 171.416 27.444C171.409 27.579 171.409 27.716 171.405 27.852C171.402 27.976 171.396 28.098 171.396 28.223V28.232C171.396 35.979 177.05 42.398 184.455 43.607C184.509 43.616 184.792 43.658 184.88 43.67C185.57 43.763 186.273 43.816 186.989 43.816H187.426C190.312 43.816 192.911 43.158 195.225 41.842C197.538 40.526 199.374 38.849 200.733 36.812L196.467 33.373C195.999 33.925 195.48 34.477 194.907 35.029ZM259.19 28.206C259.19 22.786 263.484 18.391 268.794 18.355C268.948 18.358 269.102 18.364 269.261 18.364C271.085 18.364 272.73 18.767 274.195 19.573C275.659 20.38 276.859 21.399 277.792 22.629V33.836C276.773 35.194 275.532 36.245 274.068 36.987C273.115 37.47 272.149 37.794 271.169 37.963C270.852 38.029 270.505 38.067 270.153 38.084C270.151 38.084 269.889 38.094 269.761 38.096C269.7 38.097 269.487 38.098 269.44 38.096C268.605 38.086 267.935 37.994 267.935 37.994C263.031 37.518 259.19 33.328 259.19 28.206ZM268.754 43.816C270.537 43.816 272.21 43.545 273.781 42.973C275.351 42.399 276.752 41.562 277.984 40.457V43.195H283.841V13.27H277.984V16.008C276.625 14.82 275.15 13.96 273.558 13.429C271.966 12.899 270.321 12.633 268.624 12.633C268.602 12.633 268.581 12.635 268.558 12.635C260.022 12.722 253.129 19.676 253.129 28.232C253.129 36.789 260.023 43.729 268.559 43.816H268.754ZM211.48 0.25296H205.431V43.195H211.48V0.25296ZM340.452 12.63C338.246 12.63 336.197 13.106 334.308 14.061C332.42 15.016 330.838 16.301 329.565 17.913C328.589 19.145 327.857 20.577 327.368 22.211C326.881 23.846 326.636 25.957 326.636 28.547V43.19H332.685V28.228C332.685 26.318 332.844 24.853 333.162 23.835C333.48 22.816 333.916 21.967 334.468 21.288C335.19 20.396 336.091 19.686 337.173 19.155C338.219 18.643 339.335 18.384 340.518 18.366V12.63H340.452ZM323.1 10.197C328.314 10.197 332.862 7.35996 335.295 3.14696L330.27 0.251953C328.867 2.75695 326.182 4.45396 323.096 4.45396C320.01 4.45396 317.326 2.75796 315.922 0.25296L310.902 3.14396C313.335 7.35796 317.884 10.197 323.1 10.197ZM296.958 22.629C297.85 21.526 299.006 20.539 300.428 19.668C301.85 18.799 303.558 18.363 305.554 18.363C306.784 18.363 307.941 18.629 309.024 19.159C310.106 19.69 311.008 20.401 311.73 21.292C312.281 21.972 312.717 22.82 313.035 23.839C313.354 24.858 313.513 26.322 313.513 28.232V43.195H319.561V28.551C319.561 25.962 319.316 23.85 318.829 22.215C318.341 20.581 317.608 19.149 316.633 17.918C315.359 16.305 313.777 15.021 311.889 14.066C310 13.111 307.951 12.633 305.745 12.633C303.58 12.633 301.743 13.026 300.237 13.811C298.73 14.597 297.573 15.371 296.767 16.135V13.269H290.909V43.195H296.958V22.629ZM232.916 18.352C237.216 18.352 240.856 21.215 242.112 25.17H223.72C224.976 21.215 228.616 18.352 232.916 18.352ZM232.597 43.816C232.662 43.817 232.724 43.816 232.789 43.816C232.893 43.816 232.99 43.817 233.096 43.816H233.228C236.115 43.816 238.714 43.158 241.028 41.842C243.341 40.526 245.176 38.849 246.536 36.812L242.27 33.373C241.802 33.925 241.283 34.477 240.71 35.029C240.137 35.581 239.478 36.079 238.736 36.525C237.993 36.971 237.165 37.343 236.253 37.64C235.339 37.937 234.327 38.096 233.224 38.096C233.009 38.096 232.827 38.082 232.597 38.072C228.061 37.871 224.373 34.612 223.464 30.264H248.242C248.33 29.594 248.38 28.912 248.38 28.219C248.38 19.608 241.4 12.628 232.789 12.628C224.179 12.628 217.199 19.608 217.199 28.219C217.199 36.765 224.075 43.712 232.597 43.816ZM303.507 133.174C290.83 133.174 280.553 122.685 280.553 109.746C280.553 96.807 290.83 86.318 303.507 86.318C316.184 86.318 326.461 96.807 326.461 109.746C326.461 122.685 316.184 133.174 303.507 133.174ZM303.507 72.735C283.066 72.735 266.496 89.305 266.496 109.746C266.496 130.187 283.066 146.757 303.507 146.757C323.948 146.757 340.518 130.187 340.518 109.746C340.518 89.305 323.948 72.735 303.507 72.735ZM218.789 94.203C218.789 88.611 224.684 85.286 231.636 85.286C237.379 85.286 242.669 87.251 247.355 90.425L254.307 80.601C248.715 76.218 240.856 72.742 230.729 72.742C218.033 72.742 204.431 79.24 204.431 94.203C204.431 119.897 242.972 111.434 242.972 125.338C242.972 130.93 236.775 134.256 230.578 134.256C223.172 134.256 216.22 131.988 209.57 127.152L202.164 136.976C209.872 143.324 219.545 146.8 230.88 146.8C244.634 146.8 257.33 138.639 257.33 125.338C257.33 99.493 218.789 106.294 218.789 94.203ZM180.76 76.169C176.283 78.433 172.532 81.478 169.512 85.303C167.198 88.224 165.461 91.62 164.303 95.495C163.147 99.371 162.567 104.38 162.567 110.519V145.247H176.911V109.764C176.911 105.234 177.287 101.761 178.042 99.345C178.798 96.929 179.831 94.918 181.139 93.305C182.851 91.191 184.988 89.508 187.556 88.247C190.034 87.033 192.682 86.419 195.488 86.377V72.774C195.435 72.774 195.385 72.775 195.332 72.775C190.099 72.775 185.241 73.904 180.76 76.169ZM36.381 122.692L15.35 74.124H0.370972L31.237 145.236H41.223L72.088 74.124H57.412L36.381 122.692ZM90.032 102.549C93.011 93.168 101.643 86.379 111.841 86.379C122.038 86.379 130.67 93.168 133.649 102.549H90.032ZM111.539 72.805C91.12 72.805 74.567 89.358 74.567 109.778C74.567 130.044 90.875 146.52 111.084 146.766C111.237 146.767 111.385 146.765 111.539 146.765C111.785 146.765 112.014 146.769 112.268 146.765C112.372 146.767 112.477 146.765 112.581 146.765C119.425 146.765 125.59 145.205 131.078 142.084C136.563 138.965 140.916 134.987 144.139 130.156L134.022 122.002C132.913 123.311 131.682 124.62 130.323 125.928C128.964 127.237 127.402 128.419 125.642 129.476C123.879 130.533 121.917 131.415 119.753 132.119C117.587 132.824 115.186 133.202 112.57 133.202C112.06 133.202 111.63 133.168 111.083 133.144C100.328 132.668 91.58 124.939 89.425 114.627H148.185C148.393 113.039 148.512 111.423 148.512 109.778C148.512 89.358 131.959 72.805 111.539 72.805Z" fill="#DCFF00"></path>
</svg>
