<svg width="216" height="89" viewBox="0 0 216 89" fill="none" xmlns="http://www.w3.org/2000/svg">
<g clip-path="url(#clip0_0_648)">
<path d="M214.28 0.444824H0.59375V86.9378H192.423L194.922 81.7125L213.318 43.2613L214.28 41.2511V38.9994V9.93195V0.444824ZM205.255 9.93195V38.9994L186.859 77.4506H9.61877C9.61877 54.944 9.61877 32.4374 9.61877 9.93195C75.296 9.93195 139.578 9.93195 205.255 9.93195Z" fill="#05376D"/>
<path d="M33.0204 60.4435L59.614 24.0657V16.9282H18.7207V26.5746H45.7366L18.7207 62.9523V70.0888H59.9761V60.4435H33.0204Z" fill="#37699F"/>
<path d="M100.908 55.8911C98.0397 59.023 94.3384 60.5926 89.8169 60.5926C85.2843 60.5926 81.604 59.023 78.7662 55.8911C76.2593 53.1293 74.8644 49.6086 74.5645 45.3299C74.5145 44.7386 74.4933 44.1272 74.4933 43.5053C74.4933 39.4057 75.4159 35.9376 77.2421 33.1011C77.6933 32.4062 78.2048 31.7529 78.7662 31.1299C81.604 27.9896 85.2843 26.4178 89.8169 26.4178C94.3384 26.4178 98.0397 27.9896 100.908 31.1299C101.469 31.7529 101.981 32.4062 102.432 33.1011C104.277 35.9376 105.199 39.4057 105.199 43.5053C105.199 44.1165 105.179 44.7184 105.129 45.2984C104.838 49.5886 103.435 53.1293 100.908 55.8911ZM114.194 33.0388C112.98 29.5076 111.066 26.3979 108.457 23.7203C107.406 22.6441 106.303 21.6849 105.129 20.8521C100.827 17.7319 95.7222 16.1729 89.8169 16.1729C83.9306 16.1729 78.8355 17.7214 74.5645 20.8215C73.3812 21.6648 72.2682 22.6347 71.2153 23.7203C68.618 26.3979 66.7128 29.5076 65.4994 33.0388C64.4163 36.1685 63.875 39.6366 63.875 43.4326C63.875 51.5376 66.3218 58.1259 71.2153 63.2184C76.0988 68.3097 82.3051 70.8502 89.8169 70.8502C97.3278 70.8502 103.545 68.3097 108.457 63.2184C113.372 58.1259 115.818 51.5376 115.818 43.4326C115.818 39.6366 115.276 36.1685 114.194 33.0388Z" fill="#37699F"/>
<path d="M133.239 60.4435V16.9282H123.051V70.0888H157.727V60.4435H133.239Z" fill="#37699F"/>
<path d="M153.472 16.9282V26.5746H168.283V70.0888H178.471V26.5746H193.281V16.9282H153.472Z" fill="#37699F"/>
</g>
<defs>
<clipPath id="clip0_0_648">
<rect width="214.813" height="88.1544" fill="white" transform="translate(0.59375)"/>
</clipPath>
</defs>
</svg>
