<svg xmlns="http://www.w3.org/2000/svg" width="70" height="51" fill="none"><path fill="#A6CE39" fill-rule="evenodd" d="M57.206 0C50.18 0 44.41 5.691 44.41 12.62c0 6.928 5.77 12.619 12.796 12.619 7.025 0 12.796-5.692 12.796-12.62C70.002 5.691 64.23 0 57.206 0Zm0 19.053c-3.513 0-6.523-2.97-6.523-6.434s3.01-6.433 6.523-6.433c3.512 0 6.523 2.97 6.523 6.433 0 3.464-2.76 6.434-6.523 6.434Z" clip-rule="evenodd"/><path fill="#647883" fill-rule="evenodd" d="M16.56 10.392H5.77V5.691H19.32V.742H0v24.002h19.319v-5.197H5.771v-4.7h10.788v-4.455ZM28.353.742h-5.771v24.002h5.77v-5.692l3.764-3.958c2.007 3.216 4.265 6.433 6.273 9.402h7.275v-.495l-9.283-13.114L45.664.99V.742h-7.276L28.354 11.135V.742Z" clip-rule="evenodd"/><path fill="#647883" d="M68.495 40.58H58.208v-6.433H70v-1.98H56.2v18.558H70v-1.98H58.208V42.56h10.287v-1.98ZM37.383 50.725h14.803v-1.98h-11.29l11.541-16.083v-.495H37.634v1.98h11.29L37.385 50.23v.495Zm-6.523-5.691.251.247H22.33l.25-.247 4.015-8.66h.25l4.015 8.66Zm-13.548 5.69h2.509l1.756-3.216h10.789l1.756 3.217h2.509l-9.534-18.558h-.502l-9.283 18.558Zm-4.265-13.608c0 1.98-1.757 2.969-4.517 2.969H2.258v-6.186H8.28c3.01.248 4.767.99 4.767 3.217Zm-3.764 5.196c2.51 0 4.265 1.237 4.265 2.97 0 2.226-2.007 3.216-4.767 3.216H2.258v-6.433h7.025v.247Zm6.524 3.217c0-2.227-1.506-3.712-3.513-4.207v-.247c1.756-.495 3.01-1.98 3.01-3.96 0-3.216-2.508-4.948-6.774-4.948H0v18.558h8.781c4.266 0 7.025-1.732 7.025-5.196Z"/></svg>