<svg width="200" height="65" viewBox="0 0 200 65" fill="none" xmlns="http://www.w3.org/2000/svg">
<g clip-path="url(#clip0_0_678)">
<path d="M190.894 0.731445V0.865221V49.652V55.6063H42.9723L10.4827 0.885672H0.53125L38.0173 64.3768V64.381H38.019L38.0199 64.3819L38.0216 64.381H190.894V64.3819H199.627V49.652V0.865221V0.731445H190.894Z" fill="#05376D"/>
<path d="M54.2798 0.865234H45.5459V49.652H54.2798V0.865234Z" fill="#222222"/>
<path d="M108.284 30.9999L115.345 9.202L122.404 30.9999H108.283H108.284ZM171.316 0.865234L161.271 32.3173L151.154 0.865234H137.47V48.1276L121.676 0.865234H110.974L96.5555 44.4049L85.033 16.8835L96.687 0.866086H87.7614L71.3856 22.8822C71.0906 23.2741 70.7828 23.7232 70.464 24.2361C70.1435 24.7482 69.6399 25.5159 68.9522 26.5393V0.865234H60.0996V49.652H68.9522V37.2917L78.4679 24.784L88.8679 49.6537H102.314L106.098 38.0228H124.733L128.66 49.6537H144.602V6.93546L158.065 49.6511H162.65L176.116 6.93546V49.6511H185.069V0.865234H171.315H171.316Z" fill="#222222"/>
<path d="M31.8701 25.4009L40.604 40.0678V0.865234H31.8701V25.4009Z" fill="#222222"/>
<path d="M0.46582 49.6518H9.19804V27.4517L0.46582 12.7856V49.6518Z" fill="#222222"/>
<path d="M54.2892 0.861572H45.5332V9.66102H54.2892V0.861572Z" fill="#05376D"/>
<path d="M199.625 0.695557H190.892V9.495H199.625V0.695557Z" fill="#222222"/>
</g>
<defs>
<clipPath id="clip0_0_678">
<rect width="200" height="65" fill="white"/>
</clipPath>
</defs>
</svg>
